<?xml version="1.0" encoding="UTF-8" standalone="no"?>
<!DOCTYPE svg PUBLIC "-//W3C//DTD SVG 1.1//EN" "http://www.w3.org/Graphics/SVG/1.1/DTD/svg11.dtd">
<svg width="100%" height="100%" viewBox="0 0 550 100" version="1.1" xmlns="http://www.w3.org/2000/svg" xmlns:xlink="http://www.w3.org/1999/xlink" xml:space="preserve" xmlns:serif="http://www.serif.com/" style="fill-rule:evenodd;clip-rule:evenodd;stroke-linejoin:round;stroke-miterlimit:2;">
    <g transform="matrix(1,0,0,1,-52.0654,36.2722)">
        <path d="M104.403,2.759C104.403,7.986 102.886,11.888 99.851,14.466C96.815,17.044 91.782,18.333 84.751,18.333L74.521,18.333L74.521,39.849L69.212,39.849L69.212,-13.342L83.872,-13.342C91.138,-13.342 96.376,-12.065 99.587,-9.51C102.798,-6.956 104.403,-2.866 104.403,2.759ZM99.024,2.759C99.024,1.564 98.937,0.486 98.761,-0.475C98.585,-1.436 98.356,-2.286 98.075,-3.024C97.794,-3.762 97.396,-4.413 96.88,-4.975C96.364,-5.538 95.849,-6.012 95.333,-6.399C94.817,-6.786 94.144,-7.114 93.312,-7.383C92.48,-7.653 91.712,-7.858 91.009,-7.999C90.306,-8.139 89.403,-8.251 88.302,-8.333C87.2,-8.415 86.216,-8.467 85.349,-8.491C84.481,-8.514 83.392,-8.526 82.079,-8.526L74.521,-8.526L74.521,13.482L84.399,13.482C89.673,13.482 93.429,12.661 95.667,11.021C97.905,9.38 99.024,6.626 99.024,2.759Z" style="fill-rule:nonzero;"/>
        <path d="M149.896,39.849L144.552,39.849L144.552,32.923C142.466,35.736 140.245,37.751 137.89,38.97C135.534,40.189 132.692,40.798 129.364,40.798C125.38,40.798 121.776,39.908 118.554,38.126C115.331,36.345 112.812,33.89 110.995,30.761C109.179,27.632 108.271,24.134 108.271,20.267C108.271,16.376 109.173,12.849 110.978,9.685C112.782,6.521 115.267,4.036 118.431,2.232C121.595,0.427 125.122,-0.475 129.013,-0.475C132.435,-0.475 135.394,0.158 137.89,1.423C140.386,2.689 142.606,4.693 144.552,7.435L144.552,0.474L149.896,0.474L149.896,39.849ZM144.552,19.986C144.552,15.603 143.069,11.911 140.105,8.911C137.14,5.911 133.489,4.411 129.153,4.411C124.864,4.411 121.214,5.923 118.202,8.947C115.19,11.97 113.685,15.626 113.685,19.915C113.685,24.415 115.196,28.201 118.22,31.271C121.243,34.341 124.981,35.876 129.435,35.876C133.677,35.876 137.257,34.347 140.175,31.288C143.093,28.23 144.552,24.462 144.552,19.986Z" style="fill-rule:nonzero;"/>
        <path d="M198.165,28.247C195.845,32.63 193.097,35.818 189.921,37.81C186.745,39.802 183.06,40.798 178.864,40.798C174.88,40.798 171.247,39.89 167.966,38.074C164.685,36.257 162.106,33.761 160.231,30.585C158.356,27.409 157.419,23.9 157.419,20.056C157.419,16.283 158.351,12.826 160.214,9.685C162.077,6.544 164.626,4.066 167.86,2.249C171.095,0.433 174.646,-0.475 178.513,-0.475C182.942,-0.475 186.915,0.685 190.431,3.005C193.946,5.326 196.501,8.466 198.095,12.427L192.118,12.427C190.595,9.849 188.661,7.868 186.317,6.486C183.974,5.103 181.349,4.411 178.442,4.411C174.06,4.411 170.362,5.935 167.351,8.982C164.339,12.029 162.833,15.767 162.833,20.197C162.833,24.556 164.362,28.259 167.421,31.306C170.48,34.353 174.224,35.876 178.653,35.876C181.442,35.876 183.868,35.29 185.931,34.118C187.993,32.947 190.056,30.99 192.118,28.247L198.165,28.247Z" style="fill-rule:nonzero;"/>
        <path d="M244.747,28.247C242.427,32.63 239.679,35.818 236.503,37.81C233.327,39.802 229.642,40.798 225.446,40.798C221.462,40.798 217.829,39.89 214.548,38.074C211.267,36.257 208.688,33.761 206.813,30.585C204.938,27.409 204.001,23.9 204.001,20.056C204.001,16.283 204.933,12.826 206.796,9.685C208.659,6.544 211.208,4.066 214.442,2.249C217.677,0.433 221.228,-0.475 225.095,-0.475C229.524,-0.475 233.497,0.685 237.013,3.005C240.528,5.326 243.083,8.466 244.677,12.427L238.7,12.427C237.177,9.849 235.243,7.868 232.899,6.486C230.556,5.103 227.931,4.411 225.024,4.411C220.642,4.411 216.944,5.935 213.933,8.982C210.921,12.029 209.415,15.767 209.415,20.197C209.415,24.556 210.944,28.259 214.003,31.306C217.062,34.353 220.806,35.876 225.235,35.876C228.024,35.876 230.45,35.29 232.513,34.118C234.575,32.947 236.638,30.99 238.7,28.247L244.747,28.247Z" style="fill-rule:nonzero;"/>
        <path d="M292.208,39.849L286.864,39.849L286.864,32.923C284.778,35.736 282.558,37.751 280.202,38.97C277.847,40.189 275.005,40.798 271.677,40.798C267.692,40.798 264.089,39.908 260.866,38.126C257.644,36.345 255.124,33.89 253.308,30.761C251.491,27.632 250.583,24.134 250.583,20.267C250.583,16.376 251.485,12.849 253.29,9.685C255.095,6.521 257.579,4.036 260.743,2.232C263.907,0.427 267.435,-0.475 271.325,-0.475C274.747,-0.475 277.706,0.158 280.202,1.423C282.698,2.689 284.919,4.693 286.864,7.435L286.864,0.474L292.208,0.474L292.208,39.849ZM286.864,19.986C286.864,15.603 285.382,11.911 282.417,8.911C279.452,5.911 275.802,4.411 271.466,4.411C267.177,4.411 263.526,5.923 260.515,8.947C257.503,11.97 255.997,15.626 255.997,19.915C255.997,24.415 257.509,28.201 260.532,31.271C263.556,34.341 267.294,35.876 271.747,35.876C275.989,35.876 279.569,34.347 282.487,31.288C285.405,28.23 286.864,24.462 286.864,19.986Z" style="fill-rule:nonzero;"/>
        <path d="M336.083,39.849L330.774,39.849L330.774,19.177C330.774,9.333 326.72,4.411 318.61,4.411C314.884,4.411 311.948,5.548 309.804,7.822C307.659,10.095 306.587,13.552 306.587,18.193L306.587,39.849L301.243,39.849L301.243,0.474L306.587,0.474L306.587,5.572C309.892,1.54 314.11,-0.475 319.243,-0.475C324.423,-0.475 328.524,1.142 331.548,4.376C334.571,7.611 336.083,12.544 336.083,19.177L336.083,39.849Z" style="fill-rule:nonzero;"/>
        <path d="M385.267,39.849L379.923,39.849L379.923,32.923C377.837,35.736 375.616,37.751 373.261,38.97C370.905,40.189 368.063,40.798 364.735,40.798C360.751,40.798 357.147,39.908 353.925,38.126C350.702,36.345 348.183,33.89 346.366,30.761C344.55,27.632 343.642,24.134 343.642,20.267C343.642,16.376 344.544,12.849 346.349,9.685C348.153,6.521 350.638,4.036 353.802,2.232C356.966,0.427 360.493,-0.475 364.384,-0.475C367.806,-0.475 370.765,0.158 373.261,1.423C375.757,2.689 377.978,4.693 379.923,7.435L379.923,0.474L385.267,0.474L385.267,39.849ZM379.923,19.986C379.923,15.603 378.44,11.911 375.476,8.911C372.511,5.911 368.86,4.411 364.524,4.411C360.235,4.411 356.585,5.923 353.573,8.947C350.562,11.97 349.056,15.626 349.056,19.915C349.056,24.415 350.567,28.201 353.591,31.271C356.614,34.341 360.353,35.876 364.806,35.876C369.048,35.876 372.628,34.347 375.546,31.288C378.464,28.23 379.923,24.462 379.923,19.986Z" style="fill-rule:nonzero;"/>
        <path d="M410.79,4.798C403.36,5.501 399.646,9.533 399.646,16.892L399.646,39.849L394.302,39.849L394.302,0.474L399.646,0.474L399.646,6.064C400.677,3.908 402.077,2.314 403.847,1.283C405.616,0.251 407.931,-0.335 410.79,-0.475L410.79,4.798Z" style="fill-rule:nonzero;"/>
        <path d="M453.399,20.267C453.399,24.158 452.538,27.667 450.815,30.796C449.093,33.925 446.708,36.374 443.661,38.144C440.614,39.913 437.192,40.798 433.396,40.798C427.278,40.798 422.233,38.829 418.261,34.892C414.288,30.954 412.302,25.962 412.302,19.915C412.302,17.079 412.835,14.402 413.901,11.882C414.968,9.363 416.415,7.201 418.243,5.396C420.071,3.591 422.263,2.161 424.817,1.107C427.372,0.052 430.091,-0.475 432.974,-0.475C438.88,-0.475 443.761,1.482 447.616,5.396C451.472,9.31 453.399,14.267 453.399,20.267ZM448.021,20.337C448.021,15.767 446.591,11.97 443.731,8.947C440.872,5.923 437.286,4.411 432.974,4.411C428.614,4.411 424.981,5.9 422.075,8.876C419.169,11.853 417.716,15.579 417.716,20.056C417.716,24.673 419.175,28.464 422.093,31.429C425.011,34.394 428.731,35.876 433.255,35.876C437.544,35.876 441.077,34.411 443.855,31.482C446.632,28.552 448.021,24.837 448.021,20.337Z" style="fill-rule:nonzero;"/>
        <path d="M489.259,39.849L461.907,39.849L461.907,-13.342L467.216,-13.342L467.216,35.033L489.259,35.033L489.259,39.849Z" style="fill-rule:nonzero;"/>
        <path d="M534.329,39.849L528.985,39.849L528.985,32.923C526.899,35.736 524.679,37.751 522.323,38.97C519.968,40.189 517.126,40.798 513.798,40.798C509.813,40.798 506.21,39.908 502.987,38.126C499.765,36.345 497.245,33.89 495.429,30.761C493.612,27.632 492.704,24.134 492.704,20.267C492.704,16.376 493.606,12.849 495.411,9.685C497.216,6.521 499.7,4.036 502.864,2.232C506.028,0.427 509.556,-0.475 513.446,-0.475C516.868,-0.475 519.827,0.158 522.323,1.423C524.819,2.689 527.04,4.693 528.985,7.435L528.985,0.474L534.329,0.474L534.329,39.849ZM528.985,19.986C528.985,15.603 527.503,11.911 524.538,8.911C521.573,5.911 517.923,4.411 513.587,4.411C509.298,4.411 505.647,5.923 502.636,8.947C499.624,11.97 498.118,15.626 498.118,19.915C498.118,24.415 499.63,28.201 502.653,31.271C505.677,34.341 509.415,35.876 513.868,35.876C518.11,35.876 521.69,34.347 524.608,31.288C527.526,28.23 528.985,24.462 528.985,19.986Z" style="fill-rule:nonzero;"/>
        <path d="M584.919,20.126C584.919,24.017 584.017,27.538 582.212,30.691C580.407,33.843 577.917,36.316 574.741,38.109C571.565,39.902 568.021,40.798 564.106,40.798C560.872,40.798 557.913,40.118 555.23,38.759C552.546,37.4 550.372,35.501 548.708,33.064L548.708,39.849L543.364,39.849L543.364,-13.342L548.708,-13.342L548.708,7.224C550.396,4.74 552.569,2.835 555.23,1.511C557.89,0.187 560.872,-0.475 564.177,-0.475C567.036,-0.475 569.749,0.058 572.315,1.124C574.882,2.191 577.085,3.638 578.925,5.466C580.765,7.294 582.224,9.48 583.302,12.023C584.38,14.566 584.919,17.267 584.919,20.126ZM579.505,19.986C579.505,15.556 578.034,11.853 575.093,8.876C572.151,5.9 568.466,4.411 564.036,4.411C559.63,4.411 555.909,5.917 552.874,8.929C549.839,11.941 548.321,15.626 548.321,19.986C548.321,24.345 549.851,28.083 552.909,31.201C555.968,34.318 559.653,35.876 563.966,35.876C568.396,35.876 572.093,34.359 575.058,31.324C578.022,28.288 579.505,24.509 579.505,19.986Z" style="fill-rule:nonzero;"/>
    </g>
</svg>
