<?xml version="1.0" encoding="UTF-8" standalone="no"?>
<!DOCTYPE svg PUBLIC "-//W3C//DTD SVG 1.1//EN" "http://www.w3.org/Graphics/SVG/1.1/DTD/svg11.dtd">
<svg width="100%" height="100%" viewBox="0 0 394 354" version="1.1" xmlns="http://www.w3.org/2000/svg" xmlns:xlink="http://www.w3.org/1999/xlink" xml:space="preserve" xmlns:serif="http://www.serif.com/" style="fill-rule:evenodd;clip-rule:evenodd;stroke-linecap:round;stroke-linejoin:round;stroke-miterlimit:1.5;">
    <g transform="matrix(1,0,0,1,-323.048,-212.062)">
        <path d="M593.565,460.061L660.041,390.484" style="fill:none;stroke:rgb(114,200,223);stroke-width:4px;"/>
        <g transform="matrix(0.96656,0.0349996,0.0349996,0.963367,-57.5387,60.1298)">
            <path d="M569.783,322.216L659.316,395.271" style="fill:none;stroke:rgb(134,200,224);stroke-width:4px;"/>
        </g>
        <g transform="matrix(0.96656,0.0349996,0.0349996,0.963367,31.5697,135.828)">
            <path d="M569.783,322.216L582.924,396.716" style="fill:none;stroke:rgb(134,200,224);stroke-width:4px;"/>
        </g>
        <g transform="matrix(0.96656,0.0349996,0.0349996,0.963367,-58.6674,195.707)">
            <path d="M569.783,322.216L575.44,198.24" style="fill:none;stroke:rgb(134,200,224);stroke-width:4px;"/>
        </g>
        <g transform="matrix(0.96656,0.0349996,0.0349996,0.963367,-87.1317,176.941)">
            <path d="M472.782,261.202L584.966,199.577" style="fill:none;stroke:rgb(134,200,224);stroke-width:4px;"/>
        </g>
        <g transform="matrix(0.96656,0.0349996,0.0349996,0.963367,-168.386,226.934)">
            <path d="M595.588,256.828L552.053,215.509" style="fill:none;stroke:rgb(114,200,223);stroke-width:4px;"/>
        </g>
        <g transform="matrix(0.96656,0.0349996,0.0349996,0.963367,-102.952,256.355)">
            <path d="M605.506,256.428L541.929,231.051" style="fill:none;stroke:rgb(0,68,112);stroke-width:4px;"/>
        </g>
        <g transform="matrix(0.96656,0.0349996,0.0349996,0.963367,-115.072,89.4774)">
            <path d="M610.741,274.31L540.798,224.119" style="fill:none;stroke:rgb(134,200,224);stroke-width:4px;"/>
        </g>
        <g transform="matrix(0.96656,0.0349996,0.0349996,0.963367,-183.683,80.5634)">
            <path d="M546.999,273.02L606.193,224.925" style="fill:none;stroke:rgb(134,200,224);stroke-width:4px;"/>
        </g>
        <g transform="matrix(0.96656,0.0349996,0.0349996,0.963367,-155.557,16.3613)">
            <path d="M570.693,288.575L572.773,217.831" style="fill:none;stroke:rgb(134,200,224);stroke-width:4px;"/>
        </g>
        <g transform="matrix(0.96656,0.0349996,0.0349996,0.963367,-107.643,-16.5422)">
            <path d="M531.759,247.762L615.82,256.378" style="fill:none;stroke:rgb(0,68,112);stroke-width:4px;"/>
        </g>
        <g transform="matrix(0.96656,0.0349996,0.0349996,0.963367,-59.9534,47.4606)">
            <path d="M569.783,322.216L575.44,198.24" style="fill:none;stroke:rgb(134,200,224);stroke-width:4px;"/>
        </g>
        <g transform="matrix(0.96656,0.0349996,0.0349996,0.963367,-28.0653,95.8466)">
            <path d="M554.839,261.742L604.689,215.274" style="fill:none;stroke:rgb(60,160,201);stroke-width:4px;"/>
        </g>
        <g transform="matrix(0.96656,0.0349996,0.0349996,0.963367,-32.2422,10.0907)">
            <path d="M606.702,291.744L552.677,241.608" style="fill:none;stroke:rgb(0,84,114);stroke-width:4px;"/>
        </g>
        <g transform="matrix(0.96656,0.0349996,0.0349996,0.963367,37.6662,22.6697)">
            <path d="M552.326,279.725L594.108,239.316" style="fill:none;stroke:rgb(0,68,112);stroke-width:4px;"/>
        </g>
        <g transform="matrix(0.96656,0.0349996,0.0349996,0.963367,52.8088,86.3263)">
            <path d="M622.252,290.035L531.258,225.746" style="fill:none;stroke:rgb(0,84,114);stroke-width:4px;"/>
        </g>
        <g transform="matrix(0.96656,0.0349996,0.0349996,0.963367,95.8997,15.9795)">
            <path d="M605.621,297.617L540.064,236.095" style="fill:none;stroke:rgb(134,200,224);stroke-width:4px;"/>
        </g>
        <g>
            <g transform="matrix(1,0,0,1,403.261,64.8273)">
                <circle cx="225.978" cy="206.267" r="27.367" style="fill:rgb(114,200,223);"/>
            </g>
            <g transform="matrix(1,0,0,1,191.58,293.801)">
                <circle cx="225.978" cy="206.267" r="27.367" style="fill:rgb(114,200,223);"/>
            </g>
            <g transform="matrix(1,0,0,1,179.066,33.1615)">
                <circle cx="225.978" cy="206.267" r="27.367" style="fill:rgb(97,81,161);"/>
            </g>
            <g transform="matrix(1.04343,0,0,1.04343,268.677,37.0147)">
                <circle cx="225.978" cy="206.267" r="27.367" style="fill:rgb(97,81,161);"/>
            </g>
            <g transform="matrix(1.29744,0,0,1.29744,211.276,120.348)">
                <circle cx="225.978" cy="206.267" r="27.367" style="fill:rgb(60,160,201);"/>
            </g>
            <g transform="matrix(0.753042,0,0,0.753042,334.298,232.639)">
                <circle cx="225.978" cy="206.267" r="27.367" style="fill:white;"/>
            </g>
            <g transform="matrix(1.29744,0,0,1.29744,375.603,122.865)">
                <circle cx="225.978" cy="206.267" r="27.367" style="fill:rgb(60,160,201);"/>
            </g>
            <g transform="matrix(1.01568,0,0,1.01568,459.265,111.393)">
                <circle cx="225.978" cy="206.267" r="27.367" style="fill:rgb(60,160,201);"/>
            </g>
            <g transform="matrix(1.01568,0,0,1.01568,138.642,240.823)">
                <circle cx="225.978" cy="206.267" r="27.367" style="fill:rgb(60,160,201);"/>
            </g>
            <g transform="matrix(1.01568,0,0,1.01568,272.977,320.019)">
                <circle cx="225.978" cy="206.267" r="27.367" style="fill:rgb(60,160,201);"/>
            </g>
            <g transform="matrix(1,0,0,1,124.437,157.359)">
                <circle cx="225.978" cy="206.267" r="27.367" style="fill:rgb(97,81,161);"/>
            </g>
            <g transform="matrix(1,0,0,1,387.26,332.146)">
                <circle cx="225.978" cy="206.267" r="27.367" style="fill:rgb(97,81,161);"/>
            </g>
            <g transform="matrix(0.806857,0,0,0.806857,411.233,293.633)">
                <circle cx="225.978" cy="206.267" r="27.367" style="fill:rgb(55,65,144);"/>
            </g>
            <g transform="matrix(0.908411,0,0,0.908411,368.112,130.583)">
                <circle cx="225.978" cy="206.267" r="27.367" style="fill:rgb(21,110,166);"/>
            </g>
            <g transform="matrix(0.806857,0,0,0.806857,224.712,149.751)">
                <circle cx="225.978" cy="206.267" r="27.367" style="fill:rgb(55,65,144);"/>
            </g>
            <g transform="matrix(0.753042,0,0,0.753042,498.624,235.156)">
                <circle cx="225.978" cy="206.267" r="27.367" style="fill:white;"/>
            </g>
            <g transform="matrix(0.586615,0,0,0.586615,371.906,131.24)">
                <circle cx="225.978" cy="206.267" r="27.367" style="fill:white;"/>
            </g>
        </g>
    </g>
</svg>
